<?xml version="1.0" standalone="no"?>
<!DOCTYPE svg PUBLIC "-//W3C//DTD SVG 20010904//EN"
 "http://www.w3.org/TR/2001/REC-SVG-20010904/DTD/svg10.dtd">
<svg version="1.0" xmlns="http://www.w3.org/2000/svg"
 width="532.000000pt" height="128.000000pt" viewBox="0 0 532.000000 128.000000"
 preserveAspectRatio="xMidYMid meet">

<g transform="translate(0.000000,128.000000) scale(0.100000,-0.100000)"
fill="#000000" stroke="none">
<path d="M345 1208 c-28 -16 -35 -28 -35 -65 l0 -33 -108 0 c-71 0 -112 -4
-120 -12 -20 -20 -15 -86 7 -98 12 -6 124 -10 295 -10 304 0 306 0 306 64 0
50 -13 56 -127 56 l-103 0 0 33 c0 38 -7 50 -37 66 -27 14 -52 14 -78 -1z"/>
<path d="M800 1189 c-13 -6 -28 -15 -32 -22 -4 -7 -8 -166 -8 -353 0 -383 -3
-369 72 -369 68 0 78 23 78 176 l0 129 53 0 c28 0 57 4 63 8 21 13 34 52 28
77 -9 37 -41 55 -96 55 l-48 0 0 129 c0 108 -3 132 -17 149 -22 25 -60 33 -93
21z"/>
<path d="M1940 1193 c-8 -3 -23 -12 -32 -21 -17 -14 -18 -50 -18 -488 0 -416
2 -474 16 -488 24 -25 64 -31 93 -15 l26 15 3 486 c2 381 -1 488 -10 495 -17
14 -60 22 -78 16z"/>
<path d="M2910 1193 c-8 -3 -23 -12 -32 -21 -17 -14 -18 -50 -18 -492 0 -388
3 -480 13 -489 35 -28 107 -21 129 13 4 6 8 125 8 264 l0 252 68 0 c40 0 73 5
80 12 16 16 16 90 0 106 -7 7 -40 12 -80 12 l-68 0 0 153 c0 134 -2 156 -17
170 -21 18 -62 28 -83 20z"/>
<path d="M4020 1193 c-8 -3 -23 -12 -32 -21 -17 -14 -18 -50 -18 -486 0 -259
4 -476 8 -482 22 -34 94 -41 129 -13 10 9 13 101 13 488 0 262 -4 481 -8 488
-7 11 -56 34 -70 32 -4 0 -14 -3 -22 -6z"/>
<path d="M5083 1193 c-51 -10 -53 -26 -53 -334 0 -261 2 -289 18 -309 12 -15
29 -22 54 -22 50 0 74 16 82 53 8 41 8 517 0 559 -5 24 -15 36 -40 46 -18 8
-35 13 -36 13 -2 -1 -13 -4 -25 -6z"/>
<path d="M1697 1162 c-14 -15 -17 -42 -17 -160 l0 -142 -55 0 c-47 0 -57 -3
-71 -25 -19 -30 -11 -81 16 -95 10 -6 39 -10 64 -10 l46 0 0 -239 c0 -237 0
-240 22 -255 31 -22 74 -20 98 4 19 19 20 33 20 463 0 417 -1 445 -18 460 -25
23 -85 22 -105 -1z"/>
<path d="M3473 1130 c-148 -31 -224 -171 -210 -388 12 -198 88 -297 244 -318
119 -15 225 37 275 136 80 158 49 430 -58 518 -58 48 -166 70 -251 52z m136
-144 c45 -24 66 -85 66 -196 0 -122 -9 -161 -44 -199 -26 -28 -35 -31 -86 -31
-49 0 -60 4 -85 28 -40 41 -53 99 -48 217 5 106 20 151 60 179 28 20 100 21
137 2z"/>
<path d="M4370 1120 c-19 -19 -20 -33 -20 -255 l0 -236 26 -26 26 -26 217 7
c234 8 315 16 333 34 17 17 15 80 -4 98 -14 14 -29 15 -130 5 -63 -6 -160 -11
-216 -11 l-102 0 0 45 0 45 165 0 c164 0 165 0 181 25 22 33 10 83 -23 96 -13
5 -92 9 -174 9 l-149 0 0 39 0 40 171 3 c155 3 172 5 185 22 19 26 18 71 -2
90 -13 14 -49 16 -240 16 -211 0 -225 -1 -244 -20z"/>
<path d="M2210 1101 c-16 -31 -12 -69 10 -91 18 -18 33 -20 175 -20 l155 0 0
-74 0 -74 -151 -4 c-151 -3 -151 -3 -175 -31 -23 -27 -24 -34 -24 -181 0 -140
2 -156 21 -180 l20 -26 172 0 c239 0 357 13 380 42 13 16 17 31 13 53 -10 47
-29 56 -110 47 -39 -4 -132 -7 -206 -7 l-135 0 0 75 0 75 153 5 c201 7 192 -4
192 205 0 139 -2 155 -21 179 l-20 26 -219 0 c-207 0 -220 -1 -230 -19z"/>
<path d="M1130 1090 c-24 -24 -26 -57 -4 -88 13 -20 24 -22 96 -22 l81 0 -5
-99 c-6 -123 -23 -161 -122 -268 -41 -43 -75 -86 -76 -94 -7 -49 23 -89 68
-89 21 0 44 16 94 68 36 37 78 84 92 105 l25 38 14 -28 c8 -15 44 -58 79 -95
69 -74 97 -84 136 -48 40 38 30 74 -44 154 -89 95 -107 136 -112 259 l-4 97
75 0 c85 0 101 10 101 67 0 60 -11 63 -256 63 -205 0 -219 -1 -238 -20z"/>
<path d="M283 950 c-110 -23 -165 -89 -148 -177 9 -49 54 -89 121 -109 49 -14
54 -18 54 -43 0 -35 -22 -41 -154 -41 -103 0 -116 -7 -116 -57 0 -24 7 -37 25
-49 23 -15 51 -16 316 -5 160 6 299 16 310 21 28 15 34 55 14 86 l-17 26 -114
-7 -114 -7 0 30 c0 28 4 32 53 46 70 20 104 48 118 96 23 77 -11 140 -95 175
-46 19 -193 28 -253 15z m187 -113 c14 -7 26 -21 28 -32 7 -32 -25 -45 -113
-45 -88 0 -120 13 -113 45 5 29 46 45 113 45 33 0 71 -6 85 -13z"/>
<path d="M4670 504 c-67 -18 -132 -55 -153 -87 -53 -81 -42 -182 28 -246 57
-52 123 -72 260 -78 246 -11 380 64 380 212 0 104 -59 166 -190 200 -75 19
-251 19 -325 -1z m319 -130 c17 -10 35 -30 41 -45 33 -78 -88 -132 -252 -115
-88 10 -132 38 -136 87 -4 43 26 74 83 88 63 16 228 6 264 -15z"/>
<path d="M405 429 c-121 -20 -187 -62 -206 -131 -19 -72 13 -134 86 -170 105
-52 367 -59 505 -13 68 23 112 72 117 132 11 128 -116 194 -367 192 -47 -1
-107 -5 -135 -10z m328 -132 c37 -24 35 -52 -5 -74 -27 -15 -58 -18 -180 -18
-132 0 -149 2 -174 21 -47 34 -41 57 22 80 59 21 300 15 337 -9z"/>
</g>
</svg>
